<svg width="95" height="95" viewBox="0 0 95 95" fill="none" xmlns="http://www.w3.org/2000/svg">
<path d="M47.5 0H26.9167C26.0423 0 25.3333 0.708944 25.3333 1.58333V12.6667H1.58333C0.708944 12.6667 0 13.3756 0 14.25V93.4167C0 94.2911 0.708944 95 1.58333 95H47.5C48.3744 95 49.0833 94.2911 49.0833 93.4167V1.58333C49.0833 0.708944 48.3744 0 47.5 0ZM45.9167 82.3333H28.5V79.1667H45.9167V82.3333ZM3.16667 23.75H25.3333V71.25H3.16667V23.75ZM45.9167 17.4167H28.5V12.6667H45.9167V17.4167ZM3.16667 74.4167H25.3333V79.1667H3.16667V74.4167ZM28.5 76V20.5833H45.9167V76H28.5ZM45.9167 3.16667V9.5H28.5V3.16667H45.9167ZM25.3333 15.8333V20.5833H3.16667V15.8333H25.3333ZM3.16667 82.3333H25.3333V91.8333H3.16667V82.3333ZM28.5 91.8333V85.5H45.9167V91.8333H28.5Z" fill="black"/>
<path d="M94.949 86.6844L75.949 13.8511C75.8431 13.4429 75.5787 13.0942 75.2138 12.8816C74.8496 12.6698 74.4159 12.6118 74.0085 12.7208L50.2585 19.0541C49.4174 19.2783 48.9148 20.1396 49.1344 20.9823L68.1344 93.8156C68.2403 94.2238 68.5055 94.5725 68.8704 94.7843C69.2345 94.9954 69.6683 95.0526 70.0749 94.9428L93.8249 88.6095C94.6645 88.3852 95.1663 87.5256 94.949 86.6844ZM55.1191 31.3783L75.8099 25.8622L76.5544 28.7118L55.8651 34.2365L55.1191 31.3783ZM77.3538 31.7842L86.5368 67.0095L65.8537 72.528L56.6707 37.3003L77.3538 31.7842ZM87.3431 70.0749L88.9644 76.2884L68.2736 81.8045L66.6585 75.5933L87.3431 70.0749ZM73.2864 16.1897L75.0105 22.7999L54.3197 28.3145L52.5972 21.7074L73.2864 16.1897ZM70.797 91.4769L69.073 84.8668L89.7638 79.3491L91.4862 85.9561L70.797 91.4769Z" fill="black"/>
<path d="M20.5834 28.5H7.91671C7.04232 28.5 6.33337 29.2089 6.33337 30.0833V42.75C6.33337 43.6244 7.04232 44.3333 7.91671 44.3333H20.5834C21.4578 44.3333 22.1667 43.6244 22.1667 42.75V30.0833C22.1667 29.2089 21.4578 28.5 20.5834 28.5ZM19 41.1667H9.50004V31.6667H19V41.1667Z" fill="black"/>
</svg>
